<svg width="30" height="30" viewBox="0 0 30 30" fill="none" xmlns="http://www.w3.org/2000/svg">
<path d="M6.28429 7.05797C6.44565 7.0336 6.63491 7.05627 6.80014 7.05692L22.568 7.05815C23.9453 7.05797 24.7145 6.90662 25.7624 8.05846C25.6198 8.17149 25.4594 8.27039 25.3103 8.37522L20.3099 11.9157C19.1631 12.7417 18.0056 13.5608 16.8401 14.3597C16.4447 14.6307 16.0639 14.9341 15.6569 15.1859C14.7676 15.736 14.1644 15.0623 13.4701 14.5635L6.86302 9.89989C6.012 9.30252 5.17346 8.67967 4.29932 8.1167C4.79037 7.49239 5.48854 7.11405 6.28429 7.05797Z" fill="url(#paint0_linear_68_27)"/>
<path d="M26.2353 9.24944L26.252 9.27867C26.2174 9.65332 26.2349 10.0391 26.2353 10.4154L26.2359 19.8831C26.2371 20.8334 26.2578 21.4419 25.5272 22.182C25.045 22.6704 24.4992 22.8816 23.8206 22.8862L6.56683 22.8869C5.27724 22.8867 4.16374 22.4364 3.83504 21.0161C3.74808 20.6402 3.76164 20.2639 3.76199 19.8816L3.76246 15.4907L3.76257 11.3291C3.76253 10.6368 3.74756 9.94137 3.76246 9.24944C4.02403 9.40119 4.27078 9.60117 4.51892 9.77514L13.5193 16.0876C14.9025 17.045 15.3317 16.8937 16.7483 15.8932L25.2848 9.88787C25.595 9.67395 25.9031 9.4258 26.2353 9.24944Z" fill="url(#paint1_linear_68_27)"/>
<defs>
<linearGradient id="paint0_linear_68_27" x1="15.1897" y1="6.29467" x2="14.3759" y2="15.3058" gradientUnits="userSpaceOnUse">
<stop offset="1" stop-color="#A99DCF"/>
</linearGradient>
<linearGradient id="paint1_linear_68_27" x1="15.2239" y1="8.86591" x2="14.6944" y2="23.1694" gradientUnits="userSpaceOnUse">
<stop offset="1" stop-color="#A99DCF"/>
</linearGradient>
</defs>
</svg>
