<svg width="279" height="44" viewBox="0 0 279 44" fill="none" xmlns="http://www.w3.org/2000/svg">
<mask id="path-1-inside-1_70_17" fill="white">
<path d="M228.528 0C241.708 0.000113952 252.785 6.97893 255.962 16.4336L279 24.4609L252.562 33.6719C247.548 39.8745 238.66 43.9999 228.528 44H28.3516C12.6936 44 0 34.1503 0 22C0 9.84974 12.6936 0 28.3516 0H228.528Z"/>
</mask>
<path d="M228.528 0C241.708 0.000113952 252.785 6.97893 255.962 16.4336L279 24.4609L252.562 33.6719C247.548 39.8745 238.66 43.9999 228.528 44H28.3516C12.6936 44 0 34.1503 0 22C0 9.84974 12.6936 0 28.3516 0H228.528Z" fill="white"/>
<path d="M228.528 0L228.528 -1H228.528V0ZM255.962 16.4336L255.014 16.7521L255.17 17.2167L255.633 17.3779L255.962 16.4336ZM279 24.4609L279.329 25.4053L282.039 24.461L279.329 23.5166L279 24.4609ZM252.562 33.6719L252.233 32.7275L251.963 32.8214L251.784 33.0433L252.562 33.6719ZM228.528 44V45H228.528L228.528 44ZM228.528 0L228.528 1C241.411 1.00011 252.012 7.81804 255.014 16.7521L255.962 16.4336L256.91 16.1151C253.558 6.13982 242.004 -0.999883 228.528 -1L228.528 0ZM255.962 16.4336L255.633 17.3779L278.671 25.4053L279 24.4609L279.329 23.5166L256.291 15.4893L255.962 16.4336ZM279 24.4609L278.671 23.5166L252.233 32.7275L252.562 33.6719L252.891 34.6162L279.329 25.4053L279 24.4609ZM252.562 33.6719L251.784 33.0433C246.989 38.9756 238.406 42.9999 228.528 43L228.528 44L228.528 45C238.913 44.9999 248.107 40.7733 253.339 34.3005L252.562 33.6719ZM228.528 44V43H28.3516V44V45H228.528V44ZM28.3516 44V43C12.9951 43 1 33.3768 1 22H0H-1C-1 34.9237 12.3922 45 28.3516 45V44ZM0 22H1C1 10.6232 12.9951 1 28.3516 1V0V-1C12.3922 -1 -1 9.07628 -1 22H0ZM28.3516 0V1H228.528V0V-1H28.3516V0Z" fill="#6D6D6D" mask="url(#path-1-inside-1_70_17)"/>
</svg>
