<svg width="38" height="40" viewBox="0 0 38 40" fill="none" xmlns="http://www.w3.org/2000/svg">
<path d="M19 40C29.4934 40 38 31.0457 38 20C38 8.9543 29.4934 0 19 0C8.50658 0 0 8.9543 0 20C0 31.0457 8.50658 40 19 40Z" fill="#F5F5F5"/>
<path d="M13.0286 14.1714C13.0286 12.9722 14.0007 12 15.2 12V12C16.3992 12 17.3714 12.9722 17.3714 14.1714V25.8286C17.3714 27.0278 16.3992 28 15.2 28V28C14.0007 28 13.0286 27.0278 13.0286 25.8286V14.1714Z" fill="black"/>
<rect x="20.6285" y="12" width="4.34286" height="16" rx="2.17143" fill="black"/>
</svg>
